<?xml version="1.0" encoding="utf-8"?>
<!-- Generator: Adobe Illustrator 19.0.1, SVG Export Plug-In . SVG Version: 6.00 Build 0)  -->
<svg version="1.1"
	 id="svg3430" xmlns:dc="http://purl.org/dc/elements/1.1/" xmlns:rdf="http://www.w3.org/1999/02/22-rdf-syntax-ns#" xmlns:cc="http://creativecommons.org/ns#" xmlns:svg="http://www.w3.org/2000/svg"
	 xmlns="http://www.w3.org/2000/svg" xmlns:xlink="http://www.w3.org/1999/xlink" x="0px" y="0px" viewBox="165 267.2 482 260.1"
	 style="enable-background:new 165 267.2 482 260.1;" xml:space="preserve">
<style type="text/css">
	.st0{clip-path:url(#SVGID_2_);}
	.st1{fill:url(#path3462_1_);}
	.st2{fill:#777BB3;}
	.st3{fill:#FFFFFF;}
</style>
<g>
	<title  id="title3510">Official PHP Logo</title>
	<g id="g3438" transform="matrix(1.25,0,0,-1.25,-4.4,394.29875)">
		<g id="g3440">
			<g>
				<defs>
					<path id="SVGID_1_" d="M142.8-2.3c0-53.8,82.9-97.4,185.2-97.4l0,0c102.3,0,185.2,43.6,185.2,97.4l0,0
						c0,53.8-82.9,97.4-185.2,97.4l0,0C225.7,95.1,142.8,51.5,142.8-2.3"/>
				</defs>
				<clipPath id="SVGID_2_">
					<use xlink:href="#SVGID_1_"  style="overflow:visible;"/>
				</clipPath>
				<g id="g3442" class="st0">
					<g id="g3448">
						<g id="g3450">
							
								<radialGradient id="path3462_1_" cx="83.5102" cy="-319.6583" r="0.6781" gradientTransform="matrix(448.3104 0 0 -448.3104 -37184.5039 -143245.2656)" gradientUnits="userSpaceOnUse">
								<stop  offset="0" style="stop-color:#AEB2D5"/>
								<stop  offset="0.3" style="stop-color:#AEB2D5"/>
								<stop  offset="0.75" style="stop-color:#484C89"/>
								<stop  offset="1" style="stop-color:#484C89"/>
							</radialGradient>
							<path id="path3462" class="st1" d="M142.8-2.3c0-53.8,82.9-97.4,185.2-97.4l0,0c102.3,0,185.2,43.6,185.2,97.4l0,0
								c0,53.8-82.9,97.4-185.2,97.4l0,0C225.7,95.1,142.8,51.5,142.8-2.3"/>
						</g>
					</g>
				</g>
			</g>
		</g>
		<g id="g3464">
			<g>
				<g id="g3466">
					<g id="g3472" transform="translate(288,27.3594)">
						<path id="path3474" class="st2" d="M40-119.9c98.3,0,178,40.4,178,90.2c0,49.8-79.7,90.2-178,90.2s-178-40.4-178-90.2
							C-138-79.5-58.3-119.9,40-119.9"/>
					</g>
				</g>
			</g>
		</g>
		<g id="g3476">
			<g>
				<g id="g3478">
					<g id="g3484" transform="translate(161.7344,145.3066)">
						<path id="path3486" d="M81.7-158.8c8.1,0,14.1,1.5,17.9,4.4c3.8,2.9,6.4,7.9,7.8,15c1.3,6.6,0.8,11.2-1.4,13.6
							c-2.3,2.5-7.2,3.8-14.7,3.8H78.3l-7.2-36.8H81.7z M39.4-204.2c-0.6,0-1.2,0.3-1.6,0.7c-0.4,0.5-0.5,1.1-0.4,1.7l19,97.6
							c0.2,0.9,1,1.6,2,1.6h40.9c12.9,0,22.4-3.5,28.4-10.4c6-6.9,7.9-16.6,5.5-28.8c-1-5-2.6-9.6-4.9-13.7
							c-2.3-4.1-5.3-7.9-9.1-11.3c-4.4-4.1-9.4-7.2-14.9-8.9c-5.4-1.7-12.2-2.6-20.5-2.6H67.4l-4.7-24.3c-0.2-0.9-1-1.6-2-1.6H39.4z
							"/>
					</g>
					<g id="g3488" transform="translate(159.2236,197.3071)">
						<path id="path3490" class="st3" d="M82.5-176h11.3c9,0,12.1-2,13.2-3.1c1.8-2,2.1-6.1,1-11.9c-1.3-6.5-3.6-11.2-7-13.8
							c-3.5-2.7-9.1-4-16.7-4h-8.1L82.5-176z M101.8-152.5H60.9c-1.9,0-3.6-1.4-3.9-3.3l-19-97.6c-0.2-1.2,0.1-2.4,0.8-3.3
							c0.8-0.9,1.9-1.5,3.1-1.5h21.3c1.9,0,3.6,1.4,3.9,3.3l4.4,22.7h14.9c8.4,0,15.5,0.9,21.1,2.7c5.7,1.9,11,5,15.6,9.4
							c3.9,3.5,7,7.5,9.4,11.8c2.4,4.3,4.1,9.1,5.1,14.3c2.5,12.8,0.5,23-6,30.5C125.4-156.3,115.3-152.5,101.8-152.5 M71.3-212.8
							h12.9c8.6,0,15,1.6,19.2,4.8c4.2,3.2,7,8.6,8.5,16.2c1.4,7.3,0.8,12.4-1.9,15.4c-2.7,3-8.1,4.5-16.2,4.5H79.2L71.3-212.8
							 M101.8-156.6c12.3,0,21.3-3.2,26.9-9.7c5.6-6.5,7.3-15.5,5.1-27c-0.9-4.8-2.5-9.1-4.7-13.1c-2.2-4-5.1-7.6-8.7-10.8
							c-4.2-4-9-6.8-14.2-8.5c-5.2-1.7-11.8-2.5-19.8-2.5H68.3l-5-26H42l19,97.6H101.8"/>
					</g>
					<g id="g3492" transform="translate(311.583,116.3066)">
						<path id="path3494" d="M32.2-149.2c-0.6,0-1.2,0.3-1.6,0.7c-0.4,0.5-0.5,1.1-0.4,1.7l8.4,43.2c0.8,4.1,0.6,7.1-0.6,8.3
							c-0.7,0.8-2.8,2-9.1,2H13.8L3.2-147.6c-0.2-0.9-1-1.6-2-1.6h-21.1c-0.6,0-1.2,0.3-1.6,0.7c-0.4,0.5-0.5,1.1-0.4,1.7l19,97.6
							c0.2,0.9,1,1.6,2,1.6h21.1c0.6,0,1.2-0.3,1.6-0.7c0.4-0.5,0.5-1.1,0.4-1.7l-4.6-23.6H34c12.5,0,20.9-2.2,25.8-6.7
							c5-4.6,6.6-12,4.7-21.9l-8.8-45.4c-0.2-0.9-1-1.6-2-1.6H32.2z"/>
					</g>
					<g id="g3496" transform="translate(293.6611,271.0571)">
						<path id="path3498" class="st3" d="M38.1-200.3H17c-1.9,0-3.6-1.4-3.9-3.3l-19-97.6c-0.2-1.2,0.1-2.4,0.8-3.3s1.9-1.5,3.1-1.5
							h21.1c1.9,0,3.6,1.4,3.9,3.3l10.2,52.7h13.6c6.3,0,7.6-1.3,7.6-1.4c0.4-0.4,0.9-2.3,0.1-6.6l-8.4-43.2
							c-0.2-1.2,0.1-2.4,0.8-3.3c0.8-0.9,1.9-1.5,3.1-1.5h21.4c1.9,0,3.6,1.4,3.9,3.3l8.8,45.4c2.1,10.7,0.3,18.7-5.3,23.8
							c-5.3,4.9-14.2,7.2-27.2,7.2H38l4.1,21.2c0.2,1.2-0.1,2.4-0.8,3.3C40.5-200.9,39.3-200.3,38.1-200.3 M38.1-204.3l-5-26h18.8
							c11.8,0,20-2.1,24.5-6.2c4.5-4.1,5.8-10.8,4-20.1L71.6-302H50.1l8.4,43.2c1,4.9,0.6,8.3-1.1,10.1c-1.7,1.8-5.2,2.7-10.6,2.7
							H30L19.2-302H-1.9l19,97.6H38.1"/>
					</g>
					<g id="g3500" transform="translate(409.5498,145.3066)">
						<path id="path3502" d="M-0.1-158.8c8.1,0,14.1,1.5,17.9,4.4c3.8,2.9,6.4,7.9,7.8,15c1.3,6.6,0.8,11.2-1.4,13.6
							c-2.3,2.5-7.2,3.8-14.7,3.8H-3.5l-7.2-36.8H-0.1z M-42.4-204.2c-0.6,0-1.2,0.3-1.6,0.7c-0.4,0.5-0.5,1.1-0.4,1.7l19,97.6
							c0.2,0.9,1,1.6,2,1.6h40.9c12.9,0,22.4-3.5,28.4-10.4c6-6.9,7.9-16.6,5.5-28.8c-1-5-2.6-9.6-4.9-13.7
							c-2.3-4.1-5.3-7.9-9.1-11.3c-4.4-4.1-9.4-7.2-14.9-8.9c-5.4-1.7-12.2-2.6-20.5-2.6h-16.6l-4.7-24.3c-0.2-0.9-1-1.6-2-1.6
							H-42.4z"/>
					</g>
					<g id="g3504" transform="translate(407.0391,197.3071)">
						<path id="path3506" class="st3" d="M0.7-176H12c9,0,12.1-2,13.2-3.1c1.8-2,2.1-6.1,1-11.9c-1.3-6.5-3.6-11.2-7-13.8
							c-3.5-2.7-9.1-4-16.7-4h-8.1L0.7-176z M20-152.5h-40.9c-1.9,0-3.6-1.4-3.9-3.3l-19-97.6c-0.2-1.2,0.1-2.4,0.8-3.3
							c0.8-0.9,1.9-1.5,3.1-1.5h21.3c1.9,0,3.6,1.4,3.9,3.3l4.4,22.7H4.7c8.4,0,15.5,0.9,21.1,2.7c5.7,1.9,11,5,15.6,9.4
							c3.9,3.5,7,7.5,9.4,11.8c2.4,4.3,4.1,9.1,5.1,14.3c2.5,12.8,0.5,23-6,30.5C43.5-156.3,33.5-152.5,20-152.5 M-10.6-212.8H2.4
							c8.6,0,15,1.6,19.2,4.8c4.2,3.2,7,8.6,8.5,16.2c1.4,7.3,0.8,12.4-1.9,15.4c-2.7,3-8.1,4.5-16.2,4.5H-2.6L-10.6-212.8
							 M20-156.6c12.3,0,21.3-3.2,26.9-9.7c5.6-6.5,7.3-15.5,5.1-27c-0.9-4.8-2.5-9.1-4.7-13.1c-2.2-4-5.1-7.6-8.7-10.8
							c-4.2-4-9-6.8-14.2-8.5c-5.2-1.7-11.8-2.5-19.8-2.5h-18.2l-5-26h-21.3l19,97.6H20"/>
					</g>
				</g>
			</g>
		</g>
	</g>
</g>
</svg>
