<?xml version="1.0" encoding="utf-8"?>
<!-- Generator: Adobe Illustrator 19.0.1, SVG Export Plug-In . SVG Version: 6.00 Build 0)  -->
<svg version="1.1"
	 id="svg64" sodipodi:docname="Javascript-shield.svg" inkscape:version="0.92.2 2405546, 2018-03-11" xmlns:dc="http://purl.org/dc/elements/1.1/" xmlns:cc="http://creativecommons.org/ns#" xmlns:sodipodi="http://sodipodi.sourceforge.net/DTD/sodipodi-0.dtd" xmlns:rdf="http://www.w3.org/1999/02/22-rdf-syntax-ns#" xmlns:svg="http://www.w3.org/2000/svg" xmlns:inkscape="http://www.inkscape.org/namespaces/inkscape"
	 xmlns="http://www.w3.org/2000/svg" xmlns:xlink="http://www.w3.org/1999/xlink" x="0px" y="0px" viewBox="-97.3 -67.6 352 495.7"
	 style="enable-background:new -97.3 -67.6 352 495.7;" xml:space="preserve">
<style type="text/css">
	.st0{fill:#FFFFFF;}
	.st1{fill:#EAEBEC;}
	.st2{fill:#F0BE25;}
	.st3{fill:#E4A126;}
	.st4{fill:#0E0E0F;}
</style>
<sodipodi:namedview  id="namedview66" fit-margin-right="0" fit-margin-bottom="0" inkscape:window-maximized="1" inkscape:window-y="27" inkscape:window-x="0" inkscape:window-height="1016" inkscape:window-width="1920" inkscape:current-layer="svg64" inkscape:pageshadow="2" inkscape:pageopacity="0" gridtolerance="10" guidetolerance="10" fit-margin-top="0" fit-margin-left="0" objecttolerance="10" showgrid="false" inkscape:zoom="1.0628712" bordercolor="#666666" inkscape:cy="300.83113" pagecolor="#ffffff" borderopacity="1" inkscape:cx="364.99449">
	</sodipodi:namedview>
<g>
	<path id="path118" inkscape:connector-curvature="0" class="st0" d="M-87.7,36.6l0.1,4.2c0,2.3,6.7,79.1,14.9,170.6l14.9,166.4
		L9,396.5c36.8,10.3,67.6,18.8,68.5,18.8c0.9,0.1,32.2-8.3,69.4-18.6c59.8-16.5,67.8-19,68.2-21.1c0.6-2.9,29.9-333,29.8-336.5
		l0-2.5H78.7H-87.7z"/>
	
		<path id="path88" sodipodi:nodetypes="sccsssccsscsccccccccsscscssscsscccsccsscccc" inkscape:connector-curvature="0" class="st1" d="
		M9.5,397.6l-67.5-18.9l-0.9-5c-0.8-4.4-30-331.1-30-335.5c0-1.6,17.1-1.7,167.5-1.7c158.8,0,167.5,0.1,167.5,2
		c-0.1,8.1-30.3,339.1-31.1,339.7c-0.9,0.8-131.5,37.2-135.9,37.8C78,416.3,46.6,408,9.5,397.6L9.5,397.6z M121.2,331
		c22.7-6.3,41.5-11.7,41.9-12.1c0.4-0.4,3.1-27.3,5.9-59.7c2.8-32.5,5.5-61.2,5.8-63.8l0.6-4.8h-49h-49v20.8v20.8H104h26.4l-0.5,2.5
		c-0.3,1.4-1.4,13.3-2.5,26.6c-1.1,14-2.5,24.6-3.3,25.3c-0.7,0.7-11.5,4-23.9,7.3l-22.6,6v21.2c0,14.5,0.4,21.2,1.2,21.2
		C79.4,342.3,98.5,337.2,121.2,331L121.2,331z M174.8,164.4c-0.7-5.5-7.4-79.4-7.4-82.2c0-1.7-3.9-1.9-44.4-1.9H78.7v21.7v21.7
		l20,0.8c11,0.4,22.5,1.1,25.7,1.4l5.7,0.7l1.4,17c0.8,9.4,1.7,18.9,2,21.2l0.6,4.2h20.7h20.7L174.8,164.4z"/>
	
		<path id="path80" sodipodi:nodetypes="ccsccccccscccccscscsccsssccscscssccccsccscsscccccccc" inkscape:connector-curvature="0" class="st2" d="
		M9,396.5l-66.9-18.7l-14.9-166.4c-8.2-91.5-14.9-168.3-14.9-170.6l-0.1-4.2H78.7H245l0,2.5c0,3.5-29.2,333.6-29.8,336.5
		c-0.4,2-8.5,4.5-68.2,21.1c-37.3,10.3-68.5,18.7-69.5,18.6C76.6,415.2,45.8,406.8,9,396.5L9,396.5z M121.2,331.8
		c23.1-6.4,42.3-12.2,42.7-12.9c0.4-0.6,3.2-28.9,6.1-62.8c3-33.9,5.7-62.5,5.9-63.6c0.5-1.9-3.4-2-71.3-2H33l3.1-32.3
		c1.7-17.8,3.1-32.4,3.1-32.4c0-0.1,10.6-0.4,23.4-0.7c21-0.6,64.4,1.1,65.9,2.5c0.5,0.5,4.1,35.5,4.1,40.3c0,2.4,0.3,2.4,21.8,2.4
		h21.8l-0.5-4.8c-0.3-2.6-2.1-23-4.1-45.2L168,79.8l-84-0.3c-66.8-0.2-84,0-84,1.1c0,0.8-0.5,5.7-1.1,11
		c-1.4,12.7-12.4,135.6-12.4,139v2.7H58h71.5l-0.6,4.2c-0.4,2.3-1.5,14.1-2.5,26.1c-1,12.1-2.2,22.2-2.6,22.6
		c-1,1-43.1,12.2-45.7,12.2c-1.2,0-12.1-2.7-24.1-6l-21.9-6l-0.8-9.4c-0.4-5.2-1.1-12.6-1.5-16.5l-0.7-7H7.8h-21.3l0,4.2
		c0.1,7.9,5.2,61,5.9,61.7c0.9,0.9,82.6,23.8,85.1,23.9C78.5,343.4,98.1,338.2,121.2,331.8L121.2,331.8z"/>
	
		<path id="path78" sodipodi:nodetypes="ccsccccccscccscccccccscsscccscscsscccccscsssscscccccs" inkscape:connector-curvature="0" class="st3" d="
		M9,396.5l-66.9-18.7l-14.9-166.4c-8.2-91.5-14.9-168.3-14.9-170.6l-0.1-4.2H78.7H245l0,2.5c0,3.5-29.2,333.6-29.8,336.5
		c-0.4,2-8.5,4.5-68.2,21.1c-37.3,10.3-68.5,18.7-69.5,18.6C76.6,415.2,45.8,406.8,9,396.5L9,396.5z M133.7,371.4
		c29.4-8.1,54-15.3,54.7-16c1.1-1.1,26.5-279.5,26.3-288.8l0-3.1h-68h-68v7.9v7.9H39.3C8.6,79.3,0,79.6,0,80.7c0,0.8-0.5,5.7-1.1,11
		c-1.4,12.7-12.4,135.6-12.4,139v2.7h46.1h46.1v32.6c0,25.3-0.3,32.6-1.4,32.6c-0.8,0-11.3-2.7-23.3-6l-21.9-6l-0.8-9.4
		c-0.4-5.2-1.1-12.6-1.5-16.5l-0.7-7H7.8h-21.3l0,4.2c0.1,12.1,5.4,61.3,6.6,62c0.7,0.5,20.3,6.1,43.5,12.5l42.1,11.7v21.1
		c0,11.6,0.3,21.1,0.8,21.1C79.9,386.2,104.3,379.6,133.7,371.4L133.7,371.4z M36,158.6c1.6-17.6,3.2-32.2,3.4-32.5
		c0.3-0.2,9.2-0.7,19.9-1l19.4-0.5v33v33H55.8H33L36,158.6z"/>
	<path id="path76" inkscape:connector-curvature="0" class="st4" d="M18-3.3V-14h15.2h15.2v-20.8v-20.8H59h10.7v31.5V7.3H43.8H18
		V-3.3z M79.8-1.1v-8.4h14.1c7.7,0,14.1-0.3,14.1-0.6c0-0.3-6.3-7.5-14.1-15.9L79.8-41.3v-7.2v-7.2H109h29.2v8.4v8.4l-13.7,0.3
		l-13.7,0.3l14.3,15.4l14.3,15.4V0v7.4h-29.8H79.8V-1.1z"/>
</g>
</svg>
